<svg width="50" height="44" viewBox="0 0 50 44" fill="none" xmlns="http://www.w3.org/2000/svg">
<path d="M25.0387 43.755C38.8028 43.755 49.9421 34.018 49.9421 21.9842C49.9421 9.95145 38.804 0.213379 25.0387 0.213379C11.2745 0.213379 0.135254 9.95043 0.135254 21.9842C0.135254 34.017 11.2734 43.755 25.0387 43.755ZM25.0387 1.48901C37.9659 1.48901 48.4829 10.6831 48.4829 21.9842C48.4829 33.2853 37.9659 42.4794 25.0387 42.4794C12.1114 42.4794 1.59443 33.2853 1.59443 21.9842C1.59443 10.6831 12.1114 1.48901 25.0387 1.48901Z" fill="#2E2F34"/>
<path d="M6.40967 13.7359C6.7623 13.9062 7.20619 13.7944 7.40103 13.4861C8.10465 12.3725 8.93483 11.343 9.87016 10.4073H12.4163C11.8974 11.1981 11.4275 12.0433 11.0142 12.9391C10.8634 13.2657 11.0441 13.6373 11.4178 13.7692C11.7914 13.9009 12.2165 13.743 12.3673 13.4162C12.8688 12.3295 13.4574 11.3235 14.1185 10.4073H19.1768C18.9338 11.2406 18.7164 12.1297 18.5285 13.0676C18.4591 13.4146 18.7246 13.7451 19.1215 13.8059C19.5181 13.8667 19.8964 13.6345 19.9659 13.2876C20.1781 12.2277 20.4192 11.2688 20.6812 10.4073H29.3963C29.6583 11.2688 29.8993 12.2277 30.1116 13.2876C30.1812 13.6348 30.5594 13.8666 30.9561 13.8059C31.353 13.7452 31.6185 13.4146 31.549 13.0676C31.3612 12.1297 31.1437 11.2406 30.9007 10.4073H35.959C36.6201 11.3234 37.2088 12.3296 37.7103 13.4162C37.8611 13.7428 38.286 13.9009 38.6599 13.7691C39.0336 13.6373 39.2143 13.2656 39.0635 12.939C38.6501 12.0432 38.1802 11.1981 37.6613 10.4073H40.2074C41.1427 11.3429 41.9729 12.3725 42.6765 13.4861C42.8713 13.7943 43.315 13.9063 43.6679 13.7359C44.0206 13.5656 44.1485 13.1776 43.9538 12.8692C40.1482 6.8464 32.9004 3.10498 25.0388 3.10498C17.1772 3.10498 9.9294 6.8464 6.12377 12.8692C5.92901 13.1776 6.05694 13.5656 6.40967 13.7359ZM38.7965 9.13165H36.7448C35.8186 7.95322 34.7733 6.92515 33.6367 6.06818C35.5228 6.84742 37.2652 7.88009 38.7965 9.13165ZM34.9409 9.13165H30.4939C29.9872 7.6833 29.2441 6.02005 28.2045 4.80735C30.729 5.49611 33.0554 6.99548 34.9409 9.13165ZM25.0388 4.38061C26.2461 4.38061 27.7613 5.87837 28.9677 9.13165H21.1099C22.3164 5.87837 23.8315 4.38061 25.0388 4.38061ZM21.8732 4.80735C20.8338 6.01971 20.0908 7.68245 19.5837 9.13165H15.1367C17.0222 6.99548 19.3486 5.49611 21.8732 4.80735ZM16.4409 6.06818C15.3044 6.92524 14.259 7.95322 13.3329 9.13165H11.2812C12.8124 7.88009 14.5547 6.84742 16.4409 6.06818Z" fill="#2E2F34"/>
<path d="M25.0388 40.864C32.9004 40.864 40.1482 37.1224 43.9538 31.0993C44.1486 30.7909 44.0207 30.4029 43.6679 30.2326C43.3153 30.0622 42.8714 30.1741 42.6766 30.4825C41.9729 31.596 41.1428 32.6256 40.2074 33.5614H37.6614C38.1803 32.7705 38.6502 31.9253 39.0635 31.0296C39.2143 30.7029 39.0336 30.3312 38.6599 30.1994C38.286 30.0675 37.8612 30.2256 37.7104 30.5523C37.2089 31.6391 36.6202 32.6452 35.9591 33.5614H30.9007C31.1437 32.728 31.3611 31.8388 31.549 30.9009C31.6184 30.5539 31.353 30.2234 30.9561 30.1626C30.5595 30.102 30.1811 30.3339 30.1116 30.6809C29.8994 31.7409 29.6584 32.6998 29.3963 33.5614H20.6812C20.4192 32.6998 20.1782 31.7409 19.9659 30.6809C19.8965 30.334 19.5195 30.1016 19.1214 30.1626C18.7245 30.2233 18.4591 30.5539 18.5285 30.9009C18.7163 31.8388 18.9338 32.728 19.1768 33.5614H14.1185C13.4574 32.6452 12.8688 31.6391 12.3673 30.5523C12.2165 30.2255 11.7914 30.0675 11.4178 30.1993C11.044 30.3312 10.8634 30.7028 11.0142 31.0295C11.4275 31.9253 11.8974 32.7704 12.4163 33.5614H9.87016C8.93482 32.6257 8.10465 31.596 7.40103 30.4825C7.20618 30.1742 6.7624 30.0622 6.40967 30.2326C6.05694 30.4029 5.92901 30.7909 6.12377 31.0993C9.9294 37.1224 17.1772 40.864 25.0388 40.864ZM36.7448 34.837H38.7965C37.2653 36.0887 35.5229 37.1214 33.6367 37.9006C34.7733 37.0436 35.8186 36.0155 36.7448 34.837ZM30.4938 34.837H34.9408C33.0553 36.9734 30.7289 38.4727 28.2043 39.1615C29.2437 37.9491 29.9868 36.2863 30.4938 34.837ZM28.9677 34.837C27.7611 38.0905 26.246 39.5883 25.0388 39.5883C23.8316 39.5883 22.3164 38.0905 21.1099 34.837H28.9677ZM19.5838 34.837C20.0905 36.2855 20.8336 37.9488 21.8733 39.1615C19.3487 38.4727 17.0223 36.9734 15.1368 34.837H19.5838ZM13.3329 34.837C14.259 36.0155 15.3044 37.0436 16.4409 37.9006C14.5548 37.1214 12.8124 36.0887 11.2811 34.837H13.3329Z" fill="#2E2F34"/>
<path d="M9.30762 16.705V27.2637C9.30762 28.3189 10.2896 29.1772 11.4964 29.1772C12.7033 29.1772 13.6852 28.3189 13.6852 27.2637V16.705C13.6852 15.6499 12.7033 14.7915 11.4964 14.7915C10.2896 14.7915 9.30762 15.6499 9.30762 16.705ZM12.226 16.705V27.2637C12.226 27.6154 11.8988 27.9015 11.4964 27.9015C11.0941 27.9015 10.7668 27.6154 10.7668 27.2637V16.705C10.7668 16.3533 11.0941 16.0672 11.4964 16.0672C11.8988 16.0672 12.226 16.3534 12.226 16.705Z" fill="#2E2F34"/>
<path d="M22.1591 27.7098C21.7737 27.8125 21.5565 28.1689 21.6741 28.5058C21.7913 28.8421 22.1983 29.0327 22.5847 28.9298C24.9752 28.2926 26.5814 26.5416 26.5814 24.5724C26.5814 23.2601 25.8792 22.0667 24.7433 21.2836C25.7761 21.1305 26.5653 20.3428 26.5653 19.3971C26.5653 16.8581 23.9168 14.7925 20.6616 14.7925C17.4063 14.7925 14.7578 16.8582 14.7578 19.3971C14.7578 20.7094 15.4599 21.903 16.5959 22.686C15.5631 22.839 14.774 23.6267 14.774 24.5725C14.774 26.5349 16.3728 28.2841 18.7523 28.9252C19.137 29.0287 19.5456 28.8401 19.6644 28.5035C19.7832 28.167 19.5671 27.8099 19.1821 27.7062C17.4182 27.2311 16.2331 25.9717 16.2331 24.5726C16.2331 24.221 16.5604 23.9348 16.9627 23.9348C17.3651 23.9348 17.6923 24.221 17.6923 24.5726C17.6923 25.7049 19.0317 26.626 20.6777 26.626C22.3238 26.626 23.663 25.7048 23.663 24.5726C23.663 23.7928 23.0442 23.139 22.1232 22.9458L18.8754 22.2644C17.3101 21.936 16.2169 20.757 16.2169 19.3972C16.2169 17.5615 18.2107 16.0682 20.6615 16.0682C23.1121 16.0682 25.106 17.5616 25.106 19.3972C25.106 19.7489 24.7787 20.035 24.3764 20.035C23.974 20.035 23.6468 19.7489 23.6468 19.3972C23.6468 18.2649 22.3075 17.3437 20.6615 17.3437C19.0154 17.3437 17.6761 18.265 17.6761 19.3972C17.6761 20.1771 18.2949 20.8308 19.2159 21.024L22.4637 21.7054C24.029 22.0337 25.1222 23.2128 25.1222 24.5726C25.1222 25.9766 23.9313 27.2374 22.1591 27.7098ZM21.7827 24.186C21.8816 24.2068 22.2038 24.2959 22.2038 24.5724C22.2038 24.9321 21.5371 25.3503 20.6777 25.3503C19.8182 25.3503 19.1515 24.9321 19.1515 24.5724C19.1515 24.2031 19.0312 23.8578 18.8229 23.565L21.7827 24.186ZM19.5564 19.7835C19.4576 19.7628 19.1353 19.6737 19.1353 19.3971C19.1353 19.0374 19.802 18.6192 20.6615 18.6192C21.5209 18.6192 22.1876 19.0374 22.1876 19.3971C22.1876 19.7665 22.3079 20.1118 22.5162 20.4045L19.5564 19.7835Z" fill="#2E2F34"/>
<path d="M33.971 17.3428C31.8064 17.3428 30.0454 19.425 30.0454 21.9844C30.0454 24.5438 31.8065 26.6261 33.971 26.6261C36.1356 26.6261 37.8966 24.5438 37.8966 21.9844C37.8966 19.425 36.1357 17.3428 33.971 17.3428ZM33.971 25.3504C32.6571 25.3504 31.5046 23.7775 31.5046 21.9844C31.5046 20.1914 32.6572 18.6185 33.971 18.6185C35.2849 18.6185 36.4374 20.1914 36.4374 21.9844C36.4374 23.7775 35.285 25.3504 33.971 25.3504Z" fill="#2E2F34"/>
<path d="M40.0606 21.1229C40.4565 21.0575 40.717 20.7239 40.6422 20.3778C39.9318 17.0887 37.1884 14.7915 33.9709 14.7915C30.034 14.7915 27.127 18.1304 27.127 21.9844C27.127 25.8405 30.0363 29.1772 33.9709 29.1772C37.1886 29.1772 39.932 26.8801 40.6423 23.591C40.7171 23.2449 40.4567 22.9113 40.0607 22.8459C39.6647 22.7806 39.2832 23.0082 39.2083 23.3544C38.6303 26.0317 36.4765 27.9015 33.9708 27.9015C31.0017 27.9015 28.586 25.2471 28.586 21.9844C28.586 18.7216 31.0017 16.0672 33.9708 16.0672C36.4763 16.0672 38.63 17.9371 39.2082 20.6145C39.2831 20.9607 39.6655 21.1884 40.0606 21.1229Z" fill="#2E2F34"/>
</svg>
