<svg width="100" height="100" viewBox="0 0 100 100" fill="none" xmlns="http://www.w3.org/2000/svg">
<circle cx="50" cy="50" r="50" fill="#4E4F54"/>
<g clip-path="url(#clip0_115_45)">
<path d="M50 30.3219C56.4125 30.3219 57.1719 30.35 59.6938 30.4625C62.0375 30.5656 63.3031 30.9594 64.1469 31.2875C65.2625 31.7188 66.0688 32.2438 66.9031 33.0781C67.7469 33.9219 68.2625 34.7188 68.6938 35.8344C69.0219 36.6781 69.4156 37.9531 69.5188 40.2875C69.6313 42.8187 69.6594 43.5781 69.6594 49.9813C69.6594 56.3938 69.6313 57.1531 69.5188 59.675C69.4156 62.0188 69.0219 63.2844 68.6938 64.1281C68.2625 65.2438 67.7375 66.05 66.9031 66.8844C66.0594 67.7281 65.2625 68.2438 64.1469 68.675C63.3031 69.0031 62.0281 69.3969 59.6938 69.5C57.1625 69.6125 56.4031 69.6406 50 69.6406C43.5875 69.6406 42.8281 69.6125 40.3063 69.5C37.9625 69.3969 36.6969 69.0031 35.8531 68.675C34.7375 68.2438 33.9313 67.7188 33.0969 66.8844C32.2531 66.0406 31.7375 65.2438 31.3063 64.1281C30.9781 63.2844 30.5844 62.0094 30.4813 59.675C30.3688 57.1438 30.3406 56.3844 30.3406 49.9813C30.3406 43.5688 30.3688 42.8094 30.4813 40.2875C30.5844 37.9437 30.9781 36.6781 31.3063 35.8344C31.7375 34.7188 32.2625 33.9125 33.0969 33.0781C33.9406 32.2344 34.7375 31.7188 35.8531 31.2875C36.6969 30.9594 37.9719 30.5656 40.3063 30.4625C42.8281 30.35 43.5875 30.3219 50 30.3219ZM50 26C43.4844 26 42.6688 26.0281 40.1094 26.1406C37.5594 26.2531 35.8063 26.6656 34.2875 27.2562C32.7031 27.875 31.3625 28.6906 30.0313 30.0312C28.6906 31.3625 27.875 32.7031 27.2563 34.2781C26.6656 35.8063 26.2531 37.55 26.1406 40.1C26.0281 42.6687 26 43.4844 26 50C26 56.5156 26.0281 57.3312 26.1406 59.8906C26.2531 62.4406 26.6656 64.1938 27.2563 65.7125C27.875 67.2969 28.6906 68.6375 30.0313 69.9688C31.3625 71.3 32.7031 72.125 34.2781 72.7344C35.8063 73.325 37.55 73.7375 40.1 73.85C42.6594 73.9625 43.475 73.9906 49.9906 73.9906C56.5063 73.9906 57.3219 73.9625 59.8813 73.85C62.4313 73.7375 64.1844 73.325 65.7031 72.7344C67.2781 72.125 68.6188 71.3 69.95 69.9688C71.2812 68.6375 72.1063 67.2969 72.7156 65.7219C73.3063 64.1938 73.7188 62.45 73.8313 59.9C73.9438 57.3406 73.9719 56.525 73.9719 50.0094C73.9719 43.4938 73.9438 42.6781 73.8313 40.1188C73.7188 37.5688 73.3063 35.8156 72.7156 34.2969C72.125 32.7031 71.3094 31.3625 69.9688 30.0312C68.6375 28.7 67.2969 27.875 65.7219 27.2656C64.1938 26.675 62.45 26.2625 59.9 26.15C57.3313 26.0281 56.5156 26 50 26Z" fill="white"/>
<path d="M50 37.6719C43.1938 37.6719 37.6719 43.1938 37.6719 50C37.6719 56.8062 43.1938 62.3281 50 62.3281C56.8062 62.3281 62.3281 56.8062 62.3281 50C62.3281 43.1938 56.8062 37.6719 50 37.6719ZM50 57.9969C45.5844 57.9969 42.0031 54.4156 42.0031 50C42.0031 45.5844 45.5844 42.0031 50 42.0031C54.4156 42.0031 57.9969 45.5844 57.9969 50C57.9969 54.4156 54.4156 57.9969 50 57.9969Z" fill="white"/>
<path d="M65.6937 37.1843C65.6937 38.778 64.4 40.0624 62.8156 40.0624C61.2219 40.0624 59.9375 38.7687 59.9375 37.1843C59.9375 35.5905 61.2313 34.3062 62.8156 34.3062C64.4 34.3062 65.6937 35.5999 65.6937 37.1843Z" fill="white"/>
</g>
<defs>
<clipPath id="clip0_115_45">
<rect width="48" height="48" fill="white" transform="translate(26 26)"/>
</clipPath>
</defs>
</svg>
