<svg width="100" height="100" viewBox="0 0 100 100" fill="none" xmlns="http://www.w3.org/2000/svg">
<circle cx="50" cy="50" r="50" fill="#4E4F54"/>
<path d="M45.3327 61.55H36.4893C28.626 61.55 26.666 59.59 26.666 51.7267V37.7267C26.666 29.8633 28.626 27.9033 36.4893 27.9033H61.0593C68.9227 27.9033 70.8827 29.8633 70.8827 37.7267" stroke="white" stroke-width="3.5" stroke-linecap="round" stroke-linejoin="round"/>
<path d="M45.334 72.0965V61.5498" stroke="white" stroke-width="3.5" stroke-linecap="round" stroke-linejoin="round"/>
<path d="M26.666 52.2166H45.3327" stroke="white" stroke-width="3.5" stroke-linecap="round" stroke-linejoin="round"/>
<path d="M37.7275 72.0967H45.3342" stroke="white" stroke-width="3.5" stroke-linecap="round" stroke-linejoin="round"/>
<path d="M73.3345 51.8669V65.1902C73.3345 70.7202 71.9578 72.0969 66.4278 72.0969H58.1445C52.6145 72.0969 51.2378 70.7202 51.2378 65.1902V51.8669C51.2378 46.3369 52.6145 44.9602 58.1445 44.9602H66.4278C71.9578 44.9602 73.3345 46.3369 73.3345 51.8669Z" stroke="white" stroke-width="3.5" stroke-linecap="round" stroke-linejoin="round"/>
<path d="M62.2378 64.5832H62.2588" stroke="white" stroke-width="4.66667" stroke-linecap="round" stroke-linejoin="round"/>
</svg>
